<svg width="594" height="594\" viewBox="0 0 594 594" fill="none" xmlns="http://www.w3.org/2000/svg">\n<path fill-rule="evenodd" clip-rule="evenodd" d="M318.561 5.18825C304.786 -0.681889 289.213 -0.681889 275.438 5.18825L191.027 41.1592L105.904 75.4116C92.0125 81.0012 81.0007 92.013 75.4111 105.904L41.1588 191.027L5.18776 275.438C-0.682378 289.213 -0.682378 304.786 5.18776 318.562L41.1588 402.973L75.4111 488.096C81.0007 501.987 92.0125 512.999 105.904 518.588L191.027 552.841L275.438 588.812C289.213 594.682 304.786 594.682 318.561 588.812L402.972 552.841L488.095 518.588C501.986 512.999 512.998 501.987 518.588 488.096L552.84 402.973L588.811 318.562C594.681 304.786 594.681 289.213 588.811 275.438L552.84 191.027L518.588 105.904C512.998 92.013 501.986 81.0012 488.095 75.4116L402.972 41.1592L318.561 5.18825ZM320.886 137.493C305.139 131.734 287.861 131.734 272.114 137.493L236.604 150.479L235.734 150.798L234.893 151.188L200.601 167.115C185.394 174.177 173.177 186.394 166.115 201.601L150.188 235.893L149.798 236.734L149.479 237.604L136.493 273.114C130.734 288.861 130.734 306.139 136.493 321.886L149.479 357.396L149.798 358.266L150.188 359.107L166.115 393.399C173.177 408.606 185.394 420.823 200.601 427.885L234.893 443.812L235.734 444.202L236.604 444.521L272.114 457.507C287.861 463.266 305.139 463.266 320.886 457.507L356.396 444.521L357.266 444.202L358.107 443.812L392.399 427.885C407.606 420.823 419.823 408.606 426.885 393.399L442.812 359.107L443.202 358.266L443.521 357.396L456.507 321.886C462.266 306.139 462.266 288.861 456.507 273.114L443.521 237.604L443.202 236.734L442.812 235.893L426.885 201.601C419.823 186.394 407.606 174.177 392.399 167.115L358.107 151.188L357.266 150.798L356.396 150.479L320.886 137.493ZM287.227 178.816C293.215 176.626 299.785 176.626 305.773 178.816L340.413 191.484L373.865 207.021C379.648 209.707 384.293 214.352 386.979 220.135L402.516 253.587L415.184 288.227C417.374 294.215 417.374 300.785 415.184 306.773L402.516 341.413L386.979 374.865C384.293 380.648 379.648 385.293 373.865 387.979L340.413 403.516L305.773 416.184C299.785 418.374 293.215 418.374 287.227 416.184L252.587 403.516L219.135 387.979C213.352 385.293 208.707 380.648 206.021 374.865L190.484 341.413L177.816 306.773C175.626 300.785 175.626 294.215 177.816 288.227L190.484 253.587L206.021 220.135C208.707 214.352 213.352 209.707 219.135 207.021L252.587 191.484L287.227 178.816Z" fill="#FFD56B"/>\n</svg>
